<svg width="28" height="28" viewBox="0 0 28 28" fill="none" xmlns="http://www.w3.org/2000/svg">
<g clip-path="url(#clip0_909_3571)">
<g filter="url(#filter0_dd_909_3571)">
<path fill-rule="evenodd" clip-rule="evenodd" d="M13.2204 17.2919C14.1772 17.4596 14.8752 18.2905 14.8752 19.2619V20.926C14.8752 21.2756 15.2921 21.457 15.5479 21.2186L22.2023 15.0178C22.6176 14.6308 22.6279 13.9761 22.2249 13.5763L15.5569 6.96015C15.3045 6.70968 14.8752 6.88848 14.8752 7.24409V8.66399C14.8752 9.78675 13.9511 10.6895 12.8287 10.6634L12.4876 10.6555C8.35423 10.5594 5.08684 13.6389 4.09945 17.9842C4.0254 18.3101 4.37518 18.5587 4.67689 18.4149C6.18683 17.6954 7.69626 17.3546 8.9614 17.2032C10.0699 17.0705 11.0364 17.0769 11.7317 17.1166C12.081 17.1366 12.3665 17.1653 12.5729 17.1904C12.6762 17.2029 12.76 17.2146 12.8225 17.224C12.8538 17.2287 12.8797 17.2327 12.9002 17.2361L12.9266 17.2404L12.9367 17.2422L12.9409 17.2429L12.9428 17.2432C12.9428 17.2432 12.9446 17.2435 12.5418 19.5418C12.5418 19.5418 6.8835 18.5502 3.09183 22.3418C2.69079 22.7429 1.4585 22.7502 1.4585 20.7807C1.4585 20.7567 1.45855 20.7327 1.45867 20.7087C1.45872 20.6975 1.45879 20.6864 1.45887 20.6752C1.5041 14.2865 5.64867 8.4728 12.0339 8.32281C12.2017 8.31887 12.371 8.31884 12.5418 8.32281V3.05688C12.5418 2.16365 13.6318 1.72758 14.2479 2.37429L24.9082 12.9517C25.653 13.7335 25.6337 14.9681 24.8647 15.7262L14.2262 25.6396C13.6008 26.2562 12.5418 25.8132 12.5418 24.9349V19.5418L12.9446 17.2435L13.2204 17.2919ZM3.80807 21.0264C3.80807 21.0264 3.8068 21.0224 3.80524 21.0132C3.80745 21.0216 3.80807 21.0264 3.80807 21.0264Z" fill="white"/>
</g>
</g>
<defs>
<filter id="filter0_dd_909_3571" x="-4.5415" y="-1.93469" width="35.9961" height="35.8612" filterUnits="userSpaceOnUse" color-interpolation-filters="sRGB">
<feFlood flood-opacity="0" result="BackgroundImageFix"/>
<feColorMatrix in="SourceAlpha" type="matrix" values="0 0 0 0 0 0 0 0 0 0 0 0 0 0 0 0 0 0 127 0" result="hardAlpha"/>
<feOffset dy="2"/>
<feGaussianBlur stdDeviation="3"/>
<feComposite in2="hardAlpha" operator="out"/>
<feColorMatrix type="matrix" values="0 0 0 0 0 0 0 0 0 0 0 0 0 0 0 0 0 0 0.2 0"/>
<feBlend mode="normal" in2="BackgroundImageFix" result="effect1_dropShadow_909_3571"/>
<feColorMatrix in="SourceAlpha" type="matrix" values="0 0 0 0 0 0 0 0 0 0 0 0 0 0 0 0 0 0 127 0" result="hardAlpha"/>
<feOffset dy="2"/>
<feGaussianBlur stdDeviation="1"/>
<feComposite in2="hardAlpha" operator="out"/>
<feColorMatrix type="matrix" values="0 0 0 0 0 0 0 0 0 0 0 0 0 0 0 0 0 0 0.15 0"/>
<feBlend mode="normal" in2="effect1_dropShadow_909_3571" result="effect2_dropShadow_909_3571"/>
<feBlend mode="normal" in="SourceGraphic" in2="effect2_dropShadow_909_3571" result="shape"/>
</filter>
<clipPath id="clip0_909_3571">
<rect width="28" height="28" fill="white"/>
</clipPath>
</defs>
</svg>
