<svg width="28" height="28" viewBox="0 0 28 28" fill="none" xmlns="http://www.w3.org/2000/svg">
<g clip-path="url(#clip0_909_3568)">
<g filter="url(#filter0_dd_909_3568)">
<path fill-rule="evenodd" clip-rule="evenodd" d="M12.1875 3.4883C13.3958 4.15277 14 4.95833 14 4.95833C14 4.95833 14.6042 4.15277 15.8125 3.4883C16.6607 3.0219 17.8065 2.625 19.25 2.625C23.3333 2.625 26.25 5.83332 26.25 9.91667C26.25 14.5833 22.4363 18.7433 18.9583 21.875C16.8111 23.8084 15.1667 25.0833 14 25.0833C12.8333 25.0833 11.1423 23.7987 9.04167 21.875C5.62274 18.7439 1.75 14.5833 1.75 9.91667C1.75 5.83332 4.66667 2.625 8.75 2.625C10.1935 2.625 11.3393 3.02189 12.1875 3.4883ZM12.1519 6.38307C12.1503 6.38124 12.1485 6.37907 12.1464 6.37659C12.1273 6.35428 12.0857 6.30738 12.022 6.24367C11.8934 6.11508 11.6828 5.92618 11.3932 5.73312C10.823 5.35299 9.95329 4.95833 8.75 4.95833C6.07919 4.95833 4.08333 6.99454 4.08333 9.91667C4.08333 11.5972 4.78358 13.3408 6.0319 15.1431C7.2771 16.9409 8.9465 18.6239 10.6175 20.1542C11.6467 21.0968 12.4927 21.8045 13.1774 22.2672C13.6347 22.5762 13.8958 22.6885 13.9987 22.7287C14.1005 22.6883 14.3546 22.5767 14.8007 22.2738C15.4853 21.809 16.3335 21.0987 17.397 20.141C19.0864 18.6198 20.7522 16.9398 21.987 15.1476C23.2242 13.3519 23.9167 11.6057 23.9167 9.91667C23.9167 6.99454 21.9208 4.95833 19.25 4.95833C18.0467 4.95833 17.177 5.35299 16.6068 5.73312C16.3172 5.92618 16.1066 6.11508 15.978 6.24367C15.9143 6.30738 15.8727 6.35428 15.8536 6.37659C15.8515 6.37907 15.8497 6.38124 15.8481 6.38307L14.5333 8.13611C14.2667 8.49167 13.7333 8.49167 13.4667 8.13611L12.1519 6.38307Z" fill="white"/>
</g>
</g>
<defs>
<filter id="filter0_dd_909_3568" x="-1.25" y="0.625" width="30.5" height="28.4584" filterUnits="userSpaceOnUse" color-interpolation-filters="sRGB">
<feFlood flood-opacity="0" result="BackgroundImageFix"/>
<feColorMatrix in="SourceAlpha" type="matrix" values="0 0 0 0 0 0 0 0 0 0 0 0 0 0 0 0 0 0 127 0" result="hardAlpha"/>
<feOffset dy="1"/>
<feGaussianBlur stdDeviation="1.5"/>
<feComposite in2="hardAlpha" operator="out"/>
<feColorMatrix type="matrix" values="0 0 0 0 0 0 0 0 0 0 0 0 0 0 0 0 0 0 0.2 0"/>
<feBlend mode="normal" in2="BackgroundImageFix" result="effect1_dropShadow_909_3568"/>
<feColorMatrix in="SourceAlpha" type="matrix" values="0 0 0 0 0 0 0 0 0 0 0 0 0 0 0 0 0 0 127 0" result="hardAlpha"/>
<feOffset dy="1"/>
<feGaussianBlur stdDeviation="0.5"/>
<feComposite in2="hardAlpha" operator="out"/>
<feColorMatrix type="matrix" values="0 0 0 0 0 0 0 0 0 0 0 0 0 0 0 0 0 0 0.15 0"/>
<feBlend mode="normal" in2="effect1_dropShadow_909_3568" result="effect2_dropShadow_909_3568"/>
<feBlend mode="normal" in="SourceGraphic" in2="effect2_dropShadow_909_3568" result="shape"/>
</filter>
<clipPath id="clip0_909_3568">
<rect width="28" height="28" fill="white"/>
</clipPath>
</defs>
</svg>
