<svg preserveAspectRatio="none" width="100%" height="100%" overflow="visible" style="display: block;" viewBox="0 0 22 22" fill="none" xmlns="http://www.w3.org/2000/svg">
<g id="arrow_topright_circle">
<path d="M13.6611 9.81805L8.29714 15.182C8.10188 15.3773 7.78529 15.3773 7.59003 15.182L6.88292 14.4749C6.68766 14.2796 6.68766 13.9631 6.88292 13.7678L12.2469 8.40384H8.09003C7.81389 8.40384 7.59003 8.17998 7.59003 7.90384L7.59003 6.90384C7.59003 6.62769 7.81389 6.40384 8.09003 6.40384L14.6611 6.40384C15.2134 6.40384 15.6611 6.85155 15.6611 7.40384L15.6611 13.9749C15.6611 14.251 15.4372 14.4749 15.1611 14.4749H14.1611C13.885 14.4749 13.6611 14.251 13.6611 13.9749L13.6611 9.81805Z" fill="var(--fill-0, black)"/>
<path d="M0 11C0 4.92487 4.92487 0 11 0C17.0751 0 22 4.92487 22 11C22 17.0751 17.0751 22 11 22C4.92487 22 0 17.0751 0 11ZM11 2C6.02944 2 2 6.02944 2 11C2 15.9706 6.02944 20 11 20C15.9706 20 20 15.9706 20 11C20 6.02944 15.9706 2 11 2Z" fill="var(--fill-0, black)"/>
</g>
</svg>
