<svg preserveAspectRatio="none" width="100%" height="100%" overflow="visible" style="display: block;" viewBox="0 0 24 24" fill="none" xmlns="http://www.w3.org/2000/svg">
<g id="Icon Frame - 24pt">
<path id="&#240;&#159;&#142;&#168;icon_fill -------hack" d="M17.3854 5.09344C17.5806 4.89822 17.8972 4.8982 18.0924 5.09344L18.9059 5.90692C19.1008 6.1022 19.101 6.4188 18.9059 6.61395L13.5192 11.9997L18.9059 17.3864C19.1009 17.5816 19.1009 17.8982 18.9059 18.0934L18.859 18.1403C18.857 18.1424 18.8542 18.1441 18.8522 18.1462L18.1451 18.8532C18.1431 18.8552 18.1413 18.8581 18.1393 18.86L18.0924 18.9069C17.8972 19.102 17.5806 19.1019 17.3854 18.9069L11.9987 13.5202L6.61292 18.9069C6.41776 19.102 6.10116 19.1018 5.90588 18.9069L5.09241 18.0934C4.89716 17.8982 4.89718 17.5817 5.09241 17.3864L10.4791 11.9997L5.09241 6.61395C4.8972 6.41874 4.8973 6.1022 5.09241 5.90692L5.90588 5.09344C6.10116 4.89833 6.4177 4.89823 6.61292 5.09344L11.9987 10.4802L17.3854 5.09344Z" fill="var(--fill-0, white)"/>
</g>
</svg>
