<svg preserveAspectRatio="none" width="100%" height="100%" overflow="visible" style="display: block;" viewBox="0 0 8.57367 9.38258" fill="none" xmlns="http://www.w3.org/2000/svg">
<path id="music" d="M8.31542 0.00195684C8.45227 -0.0158936 8.57362 0.0906554 8.57362 0.228668L8.57367 7.03909C8.57367 7.95455 7.83155 8.69668 6.91609 8.69668H6.85893C5.97505 8.69668 5.25852 7.98014 5.25852 7.09625C5.25852 6.21235 5.97505 5.49581 6.85893 5.49581H7.49906V2.03736L3.31511 2.5831L3.31515 7.72499C3.31515 8.64045 2.57303 9.38258 1.65758 9.38258H1.60042C0.716532 9.38258 0 8.66604 0 7.78215C0 6.89825 0.716531 6.18171 1.60042 6.18171H2.24054V0.995087C2.24054 0.880248 2.32573 0.783228 2.4396 0.768375L8.31542 0.00195684Z" fill="var(--fill-0, white)"/>
</svg>
